# File created by Blade
# Date/Time:  Mon Sep 29 17:58:21 2014
# Frame Rate: 120.000 fps
#------------------------------------------------------
:FULLY-SPECIFIED
:DEGREES
3280
root -2.220203 32.849450 4.417188 9.365804 2.101535 -1.468454
Spine -11.452166 4.303785 2.801875
Head -34.071783 -4.495400 17.735258
LeftShoulder -17.876224 13.453437 32.659869
LeftArm 12.415692 -25.848260 -31.339182
LeftForeArm 17.638908 -0.000000 10.234980
LeftHand -25.617586 0.000000 -13.762426
LeftHandThumb1 -26.253704 0.000000 33.147579
RightShoulder -24.703978 13.908842 -44.404174
RightArm -12.463761 10.994221 28.390375
RightForeArm -34.023570 -0.000000 11.286552
RightHand -14.690536 -0.000000 13.560559
RightHandThumb1 -24.326973 -0.000000 -32.862282
LeftUpLeg -0.222857 4.405592 4.047245
LeftLeg 0.388252 -0.000000 -0.000000
LeftFoot -14.736401 6.371820 -14.139129
LeftToeBase 8.527434 -0.000000 -0.000000
RightUpLeg -2.259615 0.603839 1.824306
RightLeg 0.870306 -0.000000 -0.000000
RightFoot -10.819189 -0.351441 4.027111
RightToeBase -0.387955 -0.000000 0.000000
3281
root -2.193194 32.826807 4.421043 9.206427 1.987084 -1.573258
Spine -11.475117 4.379348 3.039265
Head -33.927680 -4.946058 17.700995
LeftShoulder -17.836987 13.758248 32.433033
LeftArm 13.060295 -25.860962 -31.651983
LeftForeArm 17.518725 0.000000 10.253785
LeftHand -25.297469 -0.000000 -13.917821
LeftHandThumb1 -26.253704 0.000000 33.147579
RightShoulder -24.579128 13.889689 -44.234150
RightArm -12.091103 10.750128 28.337057
RightForeArm -34.044009 -0.000000 11.389736
RightHand -14.452473 0.000000 13.655225
RightHandThumb1 -24.326973 -0.000000 -32.862282
LeftUpLeg 0.138992 4.302807 4.081420
LeftLeg 0.041297 -0.000000 -0.000000
LeftFoot -14.832810 6.649741 -14.067598
LeftToeBase 8.636406 -0.000000 -0.000000
RightUpLeg -2.077404 0.749183 1.853476
RightLeg 0.826971 -0.000000 -0.000000
RightFoot -10.910442 -0.342840 3.987492
RightToeBase -0.224378 -0.000000 0.000000
3282
root -2.163202 32.805490 4.428245 9.014646 1.819328 -1.683105
Spine -11.440164 4.512728 3.252277
Head -33.799285 -5.279169 17.734037
LeftShoulder -17.715996 13.723018 32.349556
LeftArm 13.380193 -25.345380 -31.730669
LeftForeArm 17.404638 -0.000000 10.240701
LeftHand -24.885873 -0.000000 -13.693715
LeftHandThumb1 -26.253704 0.000000 33.147579
RightShoulder -24.454089 13.931282 -44.092525
RightArm -11.729801 10.304717 28.294784
RightForeArm -33.907827 -0.000000 11.479309
RightHand -14.595660 -0.000000 13.476834
RightHandThumb1 -24.326973 -0.000000 -32.862282
LeftUpLeg 0.505955 4.203060 4.096637
LeftLeg -0.219789 -0.000000 0.000000
LeftFoot -14.975237 7.087305 -13.796952
LeftToeBase 8.862992 -0.000000 -0.000000
RightUpLeg -1.889591 1.016366 1.878282
RightLeg 0.847976 -0.000000 -0.000000
RightFoot -11.020760 -0.417132 3.969947
RightToeBase -0.042348 -0.000000 0.000000
3283
root -2.136386 32.785808 4.438975 8.801703 1.656061 -1.777659
Spine -11.351798 4.594264 3.444416
Head -33.800431 -5.546273 17.808021
LeftShoulder -17.711034 13.921864 32.177099
LeftArm 13.878610 -25.253182 -31.876251
LeftForeArm 17.348782 -0.000000 10.333019
LeftHand -24.883314 0.000000 -13.930706
LeftHandThumb1 -26.253704 0.000000 33.147579
RightShoulder -24.285612 13.916213 -43.904720
RightArm -11.323400 9.961603 28.241729
RightForeArm -33.948598 -0.000000 11.561461
RightHand -14.628857 -0.000000 13.366575
RightHandThumb1 -24.326973 -0.000000 -32.862282
LeftUpLeg 0.847362 4.165091 4.109627
LeftLeg -0.378160 -0.000000 0.000000
LeftFoot -15.096299 7.410221 -13.585340
LeftToeBase 9.008646 -0.000000 -0.000000
RightUpLeg -1.698037 1.340292 1.905488
RightLeg 0.913730 -0.000000 -0.000000
RightFoot -11.123718 -0.596448 3.880657
RightToeBase 0.202173 -0.000000 -0.000000
3284
root -2.110537 32.768393 4.453139 8.560128 1.499473 -1.838380
Spine -11.235048 4.680791 3.543026
Head -33.754258 -5.719344 17.995506
LeftShoulder -17.602025 13.937130 32.118015
LeftArm 14.148334 -24.970394 -31.866505
LeftForeArm 17.325023 -0.000000 10.360346
LeftHand -24.664685 0.000000 -13.824085
LeftHandThumb1 -26.253704 0.000000 33.147579
RightShoulder -24.131499 13.955742 -43.734973
RightArm -10.986558 9.652579 28.182817
RightForeArm -33.691112 0.000000 11.644864
RightHand -14.641166 -0.000000 13.116017
RightHandThumb1 -24.326973 -0.000000 -32.862282
LeftUpLeg 1.173654 4.171435 4.103112
LeftLeg -0.448560 -0.000000 0.000000
LeftFoot -15.214616 7.680541 -13.230052
LeftToeBase 9.423890 -0.000000 -0.000000
RightUpLeg -1.499158 1.680638 1.910880
RightLeg 1.035853 -0.000000 -0.000000
RightFoot -11.246030 -0.812330 3.757700
RightToeBase 0.589653 -0.000000 -0.000000
3285
root -2.087257 32.755081 4.465903 8.332800 1.310625 -1.908830
Spine -11.109524 4.787130 3.647741
Head -33.794935 -5.860784 18.179533
LeftShoulder -17.543308 14.077513 32.005224
LeftArm 14.438594 -24.613125 -31.807168
LeftForeArm 16.963300 -0.000000 10.580616
LeftHand -25.097394 -0.000000 -13.466594
LeftHandThumb1 -26.253704 0.000000 33.147579
RightShoulder -23.999941 13.891475 -43.584497
RightArm -10.533454 9.391709 28.206796
RightForeArm -33.687564 -0.000000 11.688371
RightHand -14.655571 -0.000000 13.003379
RightHandThumb1 -24.326973 -0.000000 -32.862282
LeftUpLeg 1.435218 4.256507 4.105997
LeftLeg -0.416822 -0.000000 0.000000
LeftFoot -15.294996 7.862040 -12.971869
LeftToeBase 9.673267 -0.000000 -0.000000
RightUpLeg -1.346086 2.067839 1.933553
RightLeg 1.202392 -0.000000 -0.000000
RightFoot -11.320923 -1.052755 3.566956
RightToeBase 1.055402 -0.000000 -0.000000
3286
root -2.065684 32.747127 4.481320 8.118641 1.146715 -1.942343
Spine -10.985128 4.873817 3.670500
Head -33.892177 -5.858702 18.489162
LeftShoulder -17.529363 14.257152 31.935664
LeftArm 14.738364 -24.311597 -31.737375
LeftForeArm 16.944195 -0.000000 10.748845
LeftHand -25.567656 -0.000000 -13.505111
LeftHandThumb1 -26.253704 0.000000 33.147579
RightShoulder -23.855331 13.848245 -43.437611
RightArm -10.213346 9.245807 28.211793
RightForeArm -33.555472 -0.000000 11.802392
RightHand -14.543691 -0.000000 12.969653
RightHandThumb1 -24.326973 -0.000000 -32.862282
LeftUpLeg 1.648365 4.274394 4.076359
LeftLeg -0.326858 -0.000000 0.000000
LeftFoot -15.347712 8.117275 -12.682089
LeftToeBase 9.853032 -0.000000 -0.000000
RightUpLeg -1.214171 2.475063 1.931764
RightLeg 1.394819 -0.000000 -0.000000
RightFoot -11.339628 -1.361259 3.322625
RightToeBase 1.288166 -0.000000 -0.000000
3287
root -2.043963 32.744604 4.497108 7.924398 1.007915 -1.944170
Spine -10.899956 4.912056 3.658784
Head -33.974692 -5.952310 18.805745
LeftShoulder -17.497707 14.359935 31.830320
LeftArm 15.066307 -24.229086 -31.636783
LeftForeArm 16.917682 -0.000000 10.742418
LeftHand -25.321335 -0.000000 -13.144865
LeftHandThumb1 -26.253704 0.000000 33.147579
RightShoulder -23.716843 13.913099 -43.422214
RightArm -9.993333 9.064972 28.314338
RightForeArm -33.576075 -0.000000 11.941313
RightHand -14.293465 0.000000 12.697022
RightHandThumb1 -24.326973 -0.000000 -32.862282
LeftUpLeg 1.814470 4.215937 4.013019
LeftLeg -0.183742 -0.000000 0.000000
LeftFoot -15.441704 8.473954 -12.369749
LeftToeBase 10.174806 -0.000000 -0.000000
RightUpLeg -1.118972 2.799109 1.904333
RightLeg 1.631489 -0.000000 -0.000000
RightFoot -11.397679 -1.594036 3.236476
RightToeBase 1.650606 -0.000000 -0.000000
3288
root -2.021757 32.746570 4.513586 7.720950 0.887690 -1.912630
Spine -10.793669 4.952747 3.574303
Head -34.067967 -5.995174 19.181830
LeftShoulder -17.399283 14.374072 31.850584
LeftArm 15.140759 -24.025384 -31.531305
LeftForeArm 16.753944 -0.000000 10.972453
LeftHand -25.630655 0.000000 -12.796898
LeftHandThumb1 -26.253704 0.000000 33.147579
RightShoulder -23.659959 13.816931 -43.256698
RightArm -9.511323 8.980494 28.386384
RightForeArm -33.460208 0.000000 11.904931
RightHand -14.132397 -0.000000 12.431304
RightHandThumb1 -24.326973 -0.000000 -32.862282
LeftUpLeg 1.979805 4.145989 3.925623
LeftLeg -0.037367 -0.000000 0.000000
LeftFoot -15.461496 8.694584 -12.323822
LeftToeBase 10.261400 -0.000000 -0.000000
RightUpLeg -0.995194 3.143159 1.849899
RightLeg 1.828329 -0.000000 -0.000000
RightFoot -11.415826 -1.909817 3.134740
RightToeBase 1.860049 -0.000000 -0.000000
3289
root -2.001675 32.749571 4.533227 7.500966 0.814750 -1.885105
Spine -10.665604 4.938312 3.497721
Head -34.218752 -6.065060 19.592876
LeftShoulder -17.323294 14.349805 31.860827
LeftArm 15.303836 -24.122335 -31.485829
LeftForeArm 16.907335 -0.000000 11.043240
LeftHand -25.872419 0.000000 -12.640904
LeftHandThumb1 -26.253704 0.000000 33.147579
RightShoulder -23.562925 13.818793 -43.195284
RightArm -9.175377 8.810195 28.499589
RightForeArm -33.679757 0.000000 12.004134
RightHand -14.063290 -0.000000 12.652187
RightHandThumb1 -24.326973 -0.000000 -32.862282
LeftUpLeg 2.152198 4.094629 3.857371
LeftLeg 0.127199 -0.000000 -0.000000
LeftFoot -15.477325 8.852492 -12.268741
LeftToeBase 10.328842 -0.000000 -0.000000
RightUpLeg -0.814342 3.413676 1.810140
RightLeg 1.960979 -0.000000 -0.000000
RightFoot -11.427234 -2.193223 3.064852
RightToeBase 1.864432 -0.000000 -0.000000
3290
root -1.982104 32.754862 4.552577 7.313942 0.770911 -1.857588
Spine -10.579218 4.911268 3.421834
Head -34.355966 -6.135328 19.944413
LeftShoulder -17.234551 14.221933 31.895696
LeftArm 15.365287 -24.055841 -31.379873
LeftForeArm 16.859954 -0.000000 11.122686
LeftHand -26.108798 0.000000 -12.329970
LeftHandThumb1 -26.253704 0.000000 33.147579
RightShoulder -23.506245 13.796568 -43.112423
RightArm -8.754774 8.614553 28.597481
RightForeArm -33.529908 -0.000000 12.001790
RightHand -14.200550 -0.000000 12.536715
RightHandThumb1 -24.326973 -0.000000 -32.862282
LeftUpLeg 2.281232 4.036426 3.799612
LeftLeg 0.310202 -0.000000 -0.000000
LeftFoot -15.496794 8.951118 -12.275041
LeftToeBase 10.416839 -0.000000 -0.000000
RightUpLeg -0.652120 3.624561 1.776125
RightLeg 2.067174 -0.000000 -0.000000
RightFoot -11.392457 -2.455287 2.945221
RightToeBase 1.734861 -0.000000 -0.000000
3291
root -1.960497 32.759228 4.577747 7.082663 0.788729 -1.811656
Spine -10.448902 4.803949 3.348487
Head -34.493207 -6.247459 20.311370
LeftShoulder -17.175338 14.170433 31.912583
LeftArm 15.439926 -24.001916 -31.250506
LeftForeArm 16.860546 -0.000000 11.164430
LeftHand -25.978844 -0.000000 -12.187088
LeftHandThumb1 -26.253704 0.000000 33.147579
RightShoulder -23.440713 13.830875 -43.097009
RightArm -8.385681 8.468072 28.708883
RightForeArm -33.712086 -0.000000 12.025585
RightHand -14.115340 0.000000 12.631640
RightHandThumb1 -24.326973 -0.000000 -32.862282
LeftUpLeg 2.464323 4.016212 3.738161
LeftLeg 0.473925 -0.000000 -0.000000
LeftFoot -15.481860 8.929904 -12.313050
LeftToeBase 10.380422 -0.000000 -0.000000
RightUpLeg -0.389115 3.711678 1.729970
RightLeg 2.083935 -0.000000 -0.000000
RightFoot -11.343033 -2.630294 2.888685
RightToeBase 1.801052 -0.000000 -0.000000
3292
root -1.937791 32.761761 4.604012 6.847157 0.814650 -1.746286
Spine -10.315158 4.703810 3.237666
Head -34.597641 -6.383895 20.659054
LeftShoulder -17.055373 14.055029 32.027061
LeftArm 15.443394 -24.055586 -31.233367
LeftForeArm 17.119607 0.000000 11.259032
LeftHand -26.009939 0.000000 -11.980521
LeftHandThumb1 -26.253704 0.000000 33.147579
RightShoulder -23.341676 14.166567 -43.200388
RightArm -8.327945 8.033953 28.763951
RightForeArm -33.749124 0.000000 12.147426
RightHand -14.161833 0.000000 12.618356
RightHandThumb1 -24.326973 -0.000000 -32.862282
LeftUpLeg 2.654890 4.102913 3.669407
LeftLeg 0.636447 -0.000000 -0.000000
LeftFoot -15.461069 8.750984 -12.378051
LeftToeBase 10.324728 -0.000000 -0.000000
RightUpLeg -0.087383 3.747523 1.661236
RightLeg 2.036310 -0.000000 -0.000000
RightFoot -11.287269 -2.756798 2.840618
RightToeBase 1.918180 -0.000000 -0.000000
